# xmcd
#
# Track frame offsets:
#	150
#	17014
#	37104
#	54405
#	73545
#	90500
#	109214
#	123484
#	140449
#	156802
#	172066
#	189909
#	206977
#	232154
#
# Disc length: 3264 seconds
#
# Revision: 0
# Processed by: cddbd v1.4PL0 Copyright (c) Steve Scherf et al.
# Submitted via: EasyCDDAExtractor 4.6.9.1
#
DISCID=c80cbe0e
DTITLE=Reggae Cowboys - Wild West Indian
DYEAR=2001
DGENRE=Country
TTITLE0=Reggae Rodeo
TTITLE1=Searchin' for De Outlaw
TTITLE2=We Ah Come Down
TTITLE3=Tell the Truth
TTITLE4=Wild West Indian
TTITLE5=Road Show
TTITLE6=Do It to Debt
TTITLE7=Because of the Gun
TTITLE8=Cowboy Riddim
TTITLE9=De Agenda
TTITLE10=Geronimo
TTITLE11=Lighten Up
TTITLE12=Hotel California
TTITLE13=Hang 'Em High
EXTD=
EXTT0=
EXTT1=
EXTT2=
EXTT3=
EXTT4=
EXTT5=
EXTT6=
EXTT7=
EXTT8=
EXTT9=
EXTT10=
EXTT11=
EXTT12=
EXTT13=
PLAYORDER=
